<svg width="50" height="50" viewBox="0 0 50 50" fill="none" xmlns="http://www.w3.org/2000/svg">
<path d="M29.1665 43.75V34.0278C29.1665 31.7362 29.1665 30.5905 29.8784 29.8786C30.5903 29.1667 31.7361 29.1667 34.0276 29.1667H43.7498" stroke="#333333" stroke-width="3"/>
<path d="M29.5241 43.75H14.5833C10.655 43.75 8.69078 43.75 7.47039 42.5296C6.25 41.3092 6.25 39.345 6.25 35.4167V14.5833C6.25 10.655 6.25 8.69078 7.47039 7.47039C8.69078 6.25 10.655 6.25 14.5833 6.25H35.4167C39.345 6.25 41.3092 6.25 42.5296 7.47039C43.75 8.69078 43.75 10.655 43.75 14.5833V29.5241C43.75 30.3757 43.75 30.8015 43.5914 31.1843C43.4328 31.5672 43.1318 31.8682 42.5296 32.4704L32.4704 42.5296C31.8682 43.1318 31.5672 43.4328 31.1843 43.5914C30.8015 43.75 30.3757 43.75 29.5241 43.75Z" stroke="#009688" stroke-width="3"/>
</svg>
