<svg width="500" height="300" viewBox="0 0 500 300" fill="none" xmlns="http://www.w3.org/2000/svg">
<path d="M89.9395 126C88.4888 126 86.6115 124.293 84.3075 120.88C82.0888 117.381 78.8888 111.92 74.7075 104.496C74.1955 103.557 72.7448 101.04 70.3555 96.944C68.0515 92.7627 65.8755 89.1787 63.8275 86.192C61.8648 83.2053 60.1155 80.8587 58.5795 79.152L45.6515 93.744V118.448L57.2995 119.728V126H21.3315V119.728L31.9555 118.448V38.832L21.4595 37.296V30.896H56.2755V37.296L45.6515 38.832V83.632L83.2835 38.832L72.5315 37.296V30.896H104.148V37.296L94.2915 38.832L66.6435 69.808C69.6302 72.368 72.7875 76.08 76.1155 80.944C79.5288 85.808 83.6675 92.08 88.5315 99.76C92.7128 106.331 95.7422 111.024 97.6195 113.84C99.5822 116.571 101.118 118.064 102.228 118.32L108.244 119.728V126H89.9395ZM113.823 106.8C113.823 98.7787 117.833 92.8907 125.855 89.136C133.876 85.296 144.031 83.248 156.319 82.992V79.408C156.319 75.3973 155.892 72.24 155.039 69.936C154.185 67.632 152.692 65.968 150.559 64.944C148.511 63.8347 145.567 63.28 141.727 63.28C137.375 63.28 133.449 63.92 129.951 65.2C126.537 66.3947 123.124 67.888 119.711 69.68L116.51 63.024C117.62 62.0853 119.668 60.848 122.655 59.312C125.641 57.776 129.097 56.4107 133.023 55.216C136.948 54.0213 140.873 53.424 144.799 53.424C150.857 53.424 155.636 54.2773 159.135 55.984C162.719 57.6053 165.279 60.2507 166.815 63.92C168.351 67.5893 169.119 72.496 169.119 78.64V119.728H176.671V125.36C174.964 125.787 172.788 126.213 170.143 126.64C167.583 127.067 165.321 127.28 163.359 127.28C160.969 127.28 159.348 126.896 158.495 126.128C157.641 125.445 157.215 123.867 157.215 121.392V117.168C154.655 119.728 151.497 122.075 147.743 124.208C144.073 126.341 139.892 127.408 135.199 127.408C129.055 127.408 123.935 125.659 119.839 122.16C115.828 118.576 113.823 113.456 113.823 106.8ZM140.703 118.704C142.921 118.704 145.481 118.021 148.383 116.656C151.284 115.291 153.929 113.669 156.319 111.792V89.776C147.017 89.776 139.977 91.2267 135.199 94.128C130.505 96.944 128.159 100.656 128.159 105.264C128.159 109.872 129.268 113.285 131.487 115.504C133.791 117.637 136.863 118.704 140.703 118.704ZM193.253 64.816L184.036 62.512V55.6L202.341 53.296H202.725L205.413 55.6V60.976L205.285 64.048C208.357 61.3173 212.41 58.8427 217.444 56.624C222.479 54.4053 227.301 53.296 231.909 53.296C237.285 53.296 241.423 54.32 244.325 56.368C247.311 58.416 249.402 61.5733 250.597 65.84C251.791 70.0213 252.389 75.696 252.389 82.864V118.704L261.349 119.6V126H231.013V119.728L238.949 118.704V82.736C238.949 77.7013 238.607 73.776 237.925 70.96C237.242 68.0587 235.962 65.9253 234.085 64.56C232.207 63.1093 229.477 62.384 225.893 62.384C222.821 62.384 219.535 63.152 216.037 64.688C212.538 66.224 209.423 68.016 206.693 70.064V118.576L215.397 119.728V126H185.189V119.728L193.253 118.576V64.816Z" fill="#009688"/>
<path d="M220.245 176.68L198.229 177.448L193.749 204.2H185.301L187.477 169.896H267.221L268.757 204.2H260.693L256.469 177.448L234.325 176.68V257.448L252.501 258.728V265H203.605V258.728L220.245 257.448V176.68ZM277.51 245.8C277.51 237.779 281.521 231.891 289.542 228.136C297.563 224.296 307.718 222.248 320.006 221.992V218.408C320.006 214.397 319.579 211.24 318.726 208.936C317.873 206.632 316.379 204.968 314.246 203.944C312.198 202.835 309.254 202.28 305.414 202.28C301.062 202.28 297.137 202.92 293.638 204.2C290.225 205.395 286.811 206.888 283.398 208.68L280.198 202.024C281.307 201.085 283.355 199.848 286.342 198.312C289.329 196.776 292.785 195.411 296.71 194.216C300.635 193.021 304.561 192.424 308.486 192.424C314.545 192.424 319.323 193.277 322.822 194.984C326.406 196.605 328.966 199.251 330.502 202.92C332.038 206.589 332.806 211.496 332.806 217.64V258.728H340.358V264.36C338.651 264.787 336.475 265.213 333.83 265.64C331.27 266.067 329.009 266.28 327.046 266.28C324.657 266.28 323.035 265.896 322.182 265.128C321.329 264.445 320.902 262.867 320.902 260.392V256.168C318.342 258.728 315.185 261.075 311.43 263.208C307.761 265.341 303.579 266.408 298.886 266.408C292.742 266.408 287.622 264.659 283.526 261.16C279.515 257.576 277.51 252.456 277.51 245.8ZM304.39 257.704C306.609 257.704 309.169 257.021 312.07 255.656C314.971 254.291 317.617 252.669 320.006 250.792V228.776C310.705 228.776 303.665 230.227 298.886 233.128C294.193 235.944 291.846 239.656 291.846 244.264C291.846 248.872 292.955 252.285 295.174 254.504C297.478 256.637 300.55 257.704 304.39 257.704ZM361.164 254.76C362.017 256.04 363.809 257.192 366.54 258.216C369.356 259.24 372.3 259.752 375.372 259.752C380.236 259.752 383.82 258.813 386.124 256.936C388.428 255.059 389.58 252.456 389.58 249.128C389.58 246.824 388.855 244.819 387.404 243.112C385.953 241.405 383.905 239.912 381.26 238.632C378.7 237.267 374.988 235.645 370.124 233.768C363.553 231.293 358.732 228.349 355.66 224.936C352.673 221.437 351.18 216.872 351.18 211.24C351.18 207.485 352.289 204.2 354.508 201.384C356.812 198.568 359.927 196.392 363.852 194.856C367.863 193.235 372.3 192.424 377.164 192.424C381.089 192.424 384.503 192.723 387.404 193.32C390.391 193.917 392.78 194.515 394.572 195.112C396.364 195.709 397.559 196.093 398.156 196.264V212.136H390.348L387.788 202.664C387.276 201.64 385.911 200.787 383.692 200.104C381.473 199.336 378.999 198.952 376.268 198.952C372.428 198.952 369.313 199.805 366.924 201.512C364.62 203.219 363.468 205.523 363.468 208.424C363.468 210.984 364.065 213.117 365.26 214.824C366.54 216.445 368.119 217.768 369.996 218.792C371.873 219.816 374.433 221.011 377.676 222.376L380.236 223.4C385.015 225.277 388.897 227.069 391.884 228.776C394.871 230.483 397.345 232.744 399.308 235.56C401.356 238.291 402.38 241.661 402.38 245.672C402.38 251.987 399.905 257.021 394.956 260.776C390.092 264.531 383.393 266.408 374.86 266.408C370.679 266.408 366.284 265.853 361.676 264.744C357.153 263.549 353.441 262.355 350.54 261.16V244.776H358.86L361.164 254.76ZM420.669 169.512L410.685 168.104V162.6L431.037 160.168H431.165L433.981 162.088V224.68L433.725 232.232L463.293 201.64L453.693 199.848V193.96H484.669V199.848L474.557 201.64L455.741 219.944L480.061 257.704L487.997 258.728V265H456.893V258.728L464.957 257.576L446.909 227.88L433.725 240.936L433.981 247.464V257.576L443.069 258.728V265H412.605V258.728L420.669 257.576V169.512Z" fill="#009688"/>
</svg>
