<svg width="50" height="50" viewBox="0 0 50 50" fill="none" xmlns="http://www.w3.org/2000/svg">
<path d="M26.0415 15.625L32.2915 11.4583L38.5415 17.7083L34.3748 23.9583L26.0415 15.625Z" fill="#009688"/>
<path d="M31.4927 11.4268C32.0404 11.4858 32.4642 11.7368 32.772 11.9717C33.0685 12.1979 33.3777 12.5069 33.6646 12.7939L33.6704 12.7988L33.7251 12.8535L37.146 16.2754C37.4493 16.5787 37.7858 16.9104 38.0278 17.2275C38.2963 17.5794 38.5854 18.0831 38.5854 18.75C38.5854 19.4169 38.2963 19.9206 38.0278 20.2725C37.7858 20.5896 37.4493 20.9213 37.146 21.2246L20.2026 38.1689C20.0643 38.3073 19.8066 38.582 19.4702 38.7725C19.134 38.9628 18.7666 39.0424 18.5767 39.0898L11.5884 40.8369C11.4567 40.8698 11.1924 40.9394 10.9526 40.9629C10.694 40.9882 10.051 41.0054 9.52295 40.4775C8.99503 39.9496 9.01134 39.3067 9.03662 39.0479C9.06011 38.8077 9.13067 38.5427 9.16357 38.4111L10.9106 31.4238C10.9581 31.234 11.0366 30.8657 11.2271 30.5293C11.4174 30.1931 11.6922 29.9362 11.8306 29.7979L28.7749 12.8535C29.0782 12.5503 29.4099 12.2137 29.7271 11.9717C30.0789 11.7033 30.5827 11.4142 31.2495 11.4141L31.4927 11.4268Z" stroke="#333333" stroke-width="3"/>
</svg>
