<svg width="50" height="50" viewBox="0 0 50 50" fill="none" xmlns="http://www.w3.org/2000/svg">
<path d="M30.2082 43.75V32.25C30.2082 31.6977 29.7605 31.25 29.2082 31.25H20.7915C20.2392 31.25 19.7915 31.6977 19.7915 32.25V43.75" stroke="#333333" stroke-width="3" stroke-linecap="round" stroke-linejoin="round"/>
<path d="M10.4165 26.5825C10.4165 23.7539 10.4165 22.3395 10.9883 21.0963C11.5601 19.8531 12.6339 18.9327 14.7816 17.0918L16.8649 15.3061C20.7469 11.9787 22.6878 10.3151 24.9998 10.3151C27.3119 10.3151 29.2528 11.9787 33.1347 15.3061L35.2181 17.0918C37.3657 18.9327 38.4396 19.8531 39.0114 21.0963C39.5832 22.3395 39.5832 23.7539 39.5832 26.5825V35.4167C39.5832 39.345 39.5832 41.3092 38.3628 42.5296C37.1424 43.75 35.1782 43.75 31.2498 43.75H18.7498C14.8215 43.75 12.8573 43.75 11.6369 42.5296C10.4165 41.3092 10.4165 39.345 10.4165 35.4167V26.5825Z" stroke="#009688" stroke-width="3"/>
</svg>
